<svg width="114" height="48" viewBox="0 0 114 48" fill="none" xmlns="http://www.w3.org/2000/svg">
<path d="M16.6911 31H19.2905L22.2095 20.794H22.3232L25.2351 31H27.8345L31.9396 16.4545H29.1058L26.4851 27.1506H26.3572L23.5518 16.4545H20.9737L18.1754 27.1435H18.0405L15.4197 16.4545H12.5859L16.6911 31ZM37.3693 31.2131C39.9119 31.2131 41.6591 29.9702 42.1136 28.0739L39.7131 27.804C39.3651 28.7273 38.5128 29.2102 37.4048 29.2102C35.7429 29.2102 34.642 28.1165 34.6207 26.2486H42.2202V25.4602C42.2202 21.6321 39.919 19.9489 37.2344 19.9489C34.1094 19.9489 32.071 22.2429 32.071 25.6094C32.071 29.0327 34.081 31.2131 37.3693 31.2131ZM34.6278 24.5156C34.706 23.1236 35.7358 21.9517 37.2699 21.9517C38.7472 21.9517 39.7415 23.0312 39.7557 24.5156H34.6278ZM46.9663 16.4545H44.3952V31H46.9663V16.4545ZM54.3686 31.2131C57.1101 31.2131 58.8572 29.5866 59.0419 27.2713H56.5845C56.3643 28.4432 55.5192 29.1179 54.3899 29.1179C52.7848 29.1179 51.7479 27.7756 51.7479 25.5455C51.7479 23.3438 52.8061 22.0227 54.3899 22.0227C55.6257 22.0227 56.3857 22.8182 56.5845 23.8693H59.0419C58.8643 21.5043 57.0178 19.9489 54.3544 19.9489C51.1584 19.9489 49.1413 22.2571 49.1413 25.5881C49.1413 28.8906 51.1087 31.2131 54.3686 31.2131ZM65.9116 31.2131C69.1076 31.2131 71.1388 28.9616 71.1388 25.5881C71.1388 22.2074 69.1076 19.9489 65.9116 19.9489C62.7156 19.9489 60.6843 22.2074 60.6843 25.5881C60.6843 28.9616 62.7156 31.2131 65.9116 31.2131ZM65.9258 29.1534C64.1573 29.1534 63.2908 27.5767 63.2908 25.581C63.2908 23.5852 64.1573 21.9872 65.9258 21.9872C67.6658 21.9872 68.5323 23.5852 68.5323 25.581C68.5323 27.5767 67.6658 29.1534 65.9258 29.1534ZM73.321 31H75.892V24.3665C75.892 23.0241 76.7869 22.1151 77.8949 22.1151C78.9815 22.1151 79.7273 22.8466 79.7273 23.9688V31H82.2486V24.196C82.2486 22.9673 82.9801 22.1151 84.223 22.1151C85.2599 22.1151 86.0838 22.7259 86.0838 24.0753V31H88.6619V23.6776C88.6619 21.2415 87.2557 19.9489 85.2528 19.9489C83.669 19.9489 82.4616 20.7301 81.9787 21.9446H81.8651C81.446 20.7088 80.3878 19.9489 78.9176 19.9489C77.4545 19.9489 76.3608 20.7017 75.9062 21.9446H75.7784V20.0909H73.321V31ZM96.0998 31.2131C98.6424 31.2131 100.39 29.9702 100.844 28.0739L98.4435 27.804C98.0955 28.7273 97.2433 29.2102 96.1353 29.2102C94.4734 29.2102 93.3725 28.1165 93.3512 26.2486H100.951V25.4602C100.951 21.6321 98.6495 19.9489 95.9648 19.9489C92.8398 19.9489 90.8015 22.2429 90.8015 25.6094C90.8015 29.0327 92.8114 31.2131 96.0998 31.2131ZM93.3583 24.5156C93.4364 23.1236 94.4663 21.9517 96.0004 21.9517C97.4776 21.9517 98.4719 23.0312 98.4862 24.5156H93.3583Z" fill="#28352F"/>
</svg>
